<?xml version="1.0" ?><svg height="128" id="Line" viewBox="0 0 128 128" width="128" xmlns="http://www.w3.org/2000/svg"><defs><style>.cls-1,.cls-2{fill:none;stroke:#424242;stroke-width:4px;}.cls-1{stroke-linecap:round;stroke-linejoin:round;fill-rule:evenodd;}.cls-2{stroke-miterlimit:22.93;stroke-dasharray:5.1 5.1;}</style></defs><title/><path class="cls-1" d="M16,103v20H43V103Zm22-6H20M38,34V4H96.35L112,19.65V109H44M96,4h0l16,16H96V4ZM78,17h2M66,17h6m-6,7H84M66,42H84M66,34H90m6,0h2M58.39,16.06l-4.91,7-3-4.22m7.87,15-4.91,7-3-4.21M88.35,57H63L66.1,70H85.28l3.07-13ZM88,57l2.33-7H99M67,76.23a3.24,3.24,0,1,1-1.41,4.37A3.26,3.26,0,0,1,67,76.23Zm14.1,0a3.24,3.24,0,1,1-1.41,4.37,3.26,3.26,0,0,1,1.41-4.37ZM73,79h5"/><line class="cls-2" x1="53" x2="103" y1="94" y2="94"/><path class="cls-1" d="M20,102V86.6h0v0l-.91-3.81,8.44-37.84A14.67,14.67,0,0,1,38,34.09h0V66.92l7.38-11.74c1.62-2.18,3.31-4,5.84-3.3a4.75,4.75,0,0,1,3.32,5.85l-6,24.05A10.62,10.62,0,0,1,39,89.11V103"/></svg>